<?xml version="1.0" standalone="no"?>
<!DOCTYPE svg PUBLIC "-//W3C//DTD SVG 20010904//EN"
 "http://www.w3.org/TR/2001/REC-SVG-20010904/DTD/svg10.dtd">
<svg version="1.0" xmlns="http://www.w3.org/2000/svg"
 width="300.000000pt" height="114.000000pt" viewBox="0 0 300.000000 114.000000"
 preserveAspectRatio="xMidYMid meet">

<g transform="translate(0.000000,114.000000) scale(0.100000,-0.100000)"
fill="#000000" stroke="none">
<path d="M950 954 c-59 -51 -114 -197 -135 -365 -4 -35 -14 -54 -40 -79 l-35
-34 0 37 c0 97 -59 156 -124 124 -44 -21 -63 -65 -71 -170 -8 -99 3 -143 42
-158 46 -17 88 15 122 92 11 25 38 60 61 77 l40 33 0 -48 c1 -107 40 -223 77
-223 24 0 75 60 115 136 40 75 38 75 53 -21 21 -125 75 -132 156 -17 l36 50
12 -34 c21 -57 80 -65 123 -17 10 10 26 39 37 64 11 25 37 59 58 75 l38 31 -3
-61 c-4 -74 14 -110 44 -86 9 8 30 42 45 75 l28 60 1 -44 c1 -99 40 -158 88
-132 11 6 33 37 49 70 22 45 35 61 61 70 36 14 102 74 102 93 0 7 -17 -4 -37
-24 -39 -37 -83 -64 -83 -52 0 4 7 46 16 93 18 95 14 165 -10 189 -37 38 -98
-40 -111 -143 -9 -70 9 -131 44 -153 24 -15 27 -21 19 -42 -13 -36 -57 -90
-72 -90 -28 0 -35 80 -15 185 9 48 8 60 -4 73 -21 21 -33 9 -53 -51 -20 -62
-60 -143 -74 -152 -17 -10 -11 35 14 117 13 42 21 80 18 83 -14 14 -43 2 -56
-22 -8 -16 -28 -41 -45 -57 l-31 -30 0 37 c0 93 -56 153 -120 127 -42 -17 -61
-53 -71 -132 -12 -98 -88 -228 -132 -228 -26 0 -40 65 -35 164 l4 92 54 56
c70 71 115 146 136 228 21 80 14 117 -23 126 -93 24 -187 -137 -215 -365 -9
-77 -19 -111 -49 -172 -41 -83 -83 -139 -104 -139 -24 0 -37 68 -33 175 l3
102 54 59 c95 104 163 283 132 350 -15 33 -60 32 -101 -2z m88 -51 c5 -68 -59
-210 -131 -290 -30 -33 -35 -28 -26 22 33 178 101 326 142 312 7 -2 13 -22 15
-44z m237 -39 c-1 -66 -46 -160 -114 -234 -60 -66 -64 -56 -26 75 39 134 89
220 125 213 11 -3 15 -16 15 -54z m545 -184 c0 -45 -25 -198 -33 -207 -9 -9
-35 10 -46 33 -21 48 -4 162 33 219 25 38 46 17 46 -45z m-1145 -56 c25 -10
45 -58 45 -108 0 -35 -5 -48 -22 -60 -38 -27 -98 -18 -98 13 0 22 51 71 73 71
25 0 23 47 -3 55 -24 8 -52 -7 -79 -41 -19 -24 -21 -25 -21 -6 0 24 52 82 73
82 9 0 23 -3 32 -6z m710 0 c25 -10 45 -58 45 -108 0 -35 -5 -48 -22 -60 -38
-27 -98 -18 -98 13 0 22 51 71 73 71 25 0 23 47 -3 55 -24 8 -52 -7 -79 -41
-19 -24 -21 -25 -21 -6 0 24 52 82 73 82 9 0 23 -3 32 -6z m-685 -208 c0 -22
-44 -77 -67 -82 -32 -8 -53 16 -53 61 l0 32 60 -1 c33 0 60 -5 60 -10z m710 0
c0 -22 -44 -77 -67 -82 -32 -8 -53 16 -53 61 l0 32 60 -1 c33 0 60 -5 60 -10z"/>
<path d="M371 943 c-12 -14 -47 -37 -78 -49 -58 -24 -81 -40 -71 -49 3 -3 31
6 62 21 30 16 57 26 60 23 2 -2 -3 -37 -13 -77 -15 -66 -20 -74 -51 -90 -47
-23 -68 -62 -52 -96 8 -18 19 -26 37 -26 l25 0 -6 -127 c-8 -148 6 -259 37
-292 11 -11 24 -21 30 -21 20 0 58 49 70 91 18 60 15 269 -4 337 l-14 53 26
11 c14 6 63 11 108 12 50 1 82 5 80 11 -6 17 -92 17 -157 0 -59 -15 -63 -15
-76 2 -18 24 -17 32 10 142 15 60 29 97 40 103 30 17 158 21 186 6 27 -15 32
-53 15 -112 -13 -47 17 -27 35 23 13 37 13 45 -1 69 -26 48 -119 62 -226 36
-17 -5 -23 -2 -23 10 0 25 -26 19 -49 -11z m-67 -270 c-8 -46 -16 -56 -40 -51
-43 8 -17 88 28 88 16 0 18 -5 12 -37z m63 -25 c-15 -9 -19 -4 -11 16 5 14 9
15 15 5 5 -8 3 -17 -4 -21z m35 -60 c7 -26 13 -100 13 -183 0 -120 -3 -146
-20 -180 -24 -49 -51 -57 -65 -20 -17 46 -8 304 15 403 9 39 43 28 57 -20z"/>
<path d="M2402 722 c-82 -242 -144 -392 -162 -392 -29 0 -35 50 -38 305 -3
220 -6 263 -19 278 -25 27 -50 21 -62 -15 -29 -94 -64 -654 -45 -725 12 -43
24 -12 18 46 -6 58 11 436 24 541 7 48 9 33 20 -113 13 -163 40 -305 64 -334
38 -46 96 42 169 255 23 68 43 122 44 120 1 -2 -3 -56 -8 -121 -11 -120 -2
-242 23 -329 13 -45 69 -130 90 -136 10 -3 7 4 -7 19 -91 100 -90 381 3 721
29 104 27 128 -8 128 -21 0 -30 -21 -106 -248z"/>
<path d="M2621 627 c-84 -43 -109 -236 -35 -269 49 -23 124 42 183 160 30 60
12 52 -23 -10 -64 -114 -132 -159 -157 -104 -14 31 1 102 21 98 24 -6 72 21
81 45 13 36 11 51 -11 73 -23 23 -27 24 -59 7z m59 -54 c0 -23 -29 -53 -52
-53 -23 0 -23 11 3 44 23 29 49 34 49 9z"/>
</g>
</svg>
